<?xml version="1.0" encoding="iso-8859-1"?>
<!-- Generator: Adobe Illustrator 19.0.0, SVG Export Plug-In . SVG Version: 6.00 Build 0)  -->
<svg version="1.1" id="Capa_1" xmlns="http://www.w3.org/2000/svg" xmlns:xlink="http://www.w3.org/1999/xlink" x="0px" y="0px"
	 viewBox="0 0 490.667 490.667" style="enable-background:new 0 0 490.667 490.667;" xml:space="preserve">
<path style="fill:#303C42;" d="M469.333,0h-448c-1.389,0-2.769,0.282-4.073,0.821c-2.613,1.079-4.693,3.159-5.773,5.773
	c-0.54,1.303-0.821,2.684-0.821,4.073V480c0,5.897,4.77,10.667,10.667,10.667C27.23,490.667,32,485.897,32,480v-58.626
	c89.547-69.869,203.949-95.396,314.709-70.249l29.749,29.749c2.082,2.084,4.813,3.125,7.542,3.125c2.728,0,5.459-1.041,7.541-3.125
	c4.166-4.166,4.166-10.916,0-15.083l-29.828-29.83c-25.129-110.679,0.352-225.105,70.176-314.628h37.444
	c5.896,0,10.667-4.77,10.667-10.667S475.23,0,469.333,0z M134.355,108.604l-87.272-87.27h126.041
	c-11.398,9.666-20.887,21.553-27.729,35.354C137.284,73.024,133.918,90.711,134.355,108.604z M119.193,123.61
	c-17.771-0.403-35.484,2.976-51.84,11.108C53.553,141.57,41.666,151.066,32,162.464V36.416L119.193,123.61z M32,204.813
	c7.793-22.336,23.59-40.439,44.834-50.98c21.035-10.447,44.796-12.077,67.802-4.779l76.171,76.171
	C152.128,212.506,82.022,233.739,32,281.982V204.813z M159.627,133.877c-7.294-22.5-5.673-46.477,4.873-67.71
	c10.53-21.233,28.644-37.041,50.991-44.834h77.167c-48.254,50.048-69.457,120.171-56.74,188.834L159.627,133.877z M32,394.839
	v-81.35c49.31-59.509,128.593-84.371,203.125-63.134l15.125,4.311l69.933,69.933C218.521,309.822,115.932,334.628,32,394.839z
	 M335.198,309.449l-69.875-69.877l-4.301-15.123c-21.246-74.545,3.637-153.786,63.134-203.115h81.178
	C345.165,105.263,320.386,207.81,335.198,309.449z"/>
<linearGradient id="SVGID_1_" gradientUnits="userSpaceOnUse" x1="-58.6603" y1="630.0151" x2="-37.2794" y2="620.0451" gradientTransform="matrix(21.3333 0 0 -21.3333 1213.2223 13553.4453)">
	<stop  offset="0" style="stop-color:#FFFFFF;stop-opacity:0.2"/>
	<stop  offset="1" style="stop-color:#FFFFFF;stop-opacity:0"/>
</linearGradient>
<path style="fill:url(#SVGID_1_);" d="M469.333,0h-448c-1.389,0-2.769,0.282-4.073,0.821c-2.613,1.079-4.693,3.159-5.773,5.773
	c-0.54,1.303-0.821,2.684-0.821,4.073V480c0,5.897,4.77,10.667,10.667,10.667C27.23,490.667,32,485.897,32,480v-58.626
	c89.547-69.869,203.949-95.396,314.709-70.249l29.749,29.749c2.082,2.084,4.813,3.125,7.542,3.125c2.728,0,5.459-1.041,7.541-3.125
	c4.166-4.166,4.166-10.916,0-15.083l-29.828-29.83c-25.129-110.679,0.352-225.105,70.176-314.628h37.444
	c5.896,0,10.667-4.77,10.667-10.667S475.23,0,469.333,0z M134.355,108.604l-87.272-87.27h126.041
	c-11.398,9.666-20.887,21.553-27.729,35.354C137.284,73.024,133.918,90.711,134.355,108.604z M119.193,123.61
	c-17.771-0.403-35.484,2.976-51.84,11.108C53.553,141.57,41.666,151.066,32,162.464V36.416L119.193,123.61z M32,204.813
	c7.793-22.336,23.59-40.439,44.834-50.98c21.035-10.447,44.796-12.077,67.802-4.779l76.171,76.171
	C152.128,212.506,82.022,233.739,32,281.982V204.813z M159.627,133.877c-7.294-22.5-5.673-46.477,4.873-67.71
	c10.53-21.233,28.644-37.041,50.991-44.834h77.167c-48.254,50.048-69.457,120.171-56.74,188.834L159.627,133.877z M32,394.839
	v-81.35c49.31-59.509,128.593-84.371,203.125-63.134l15.125,4.311l69.933,69.933C218.521,309.822,115.932,334.628,32,394.839z
	 M335.198,309.449l-69.875-69.877l-4.301-15.123c-21.246-74.545,3.637-153.786,63.134-203.115h81.178
	C345.165,105.263,320.386,207.81,335.198,309.449z"/>
<g>
</g>
<g>
</g>
<g>
</g>
<g>
</g>
<g>
</g>
<g>
</g>
<g>
</g>
<g>
</g>
<g>
</g>
<g>
</g>
<g>
</g>
<g>
</g>
<g>
</g>
<g>
</g>
<g>
</g>
</svg>
